<mxfile host="65bd71144e">
    <diagram id="jIoSEg7m4Jp2zM0ocRTL" name="Outline">
        <mxGraphModel dx="2392" dy="1150" grid="1" gridSize="10" guides="1" tooltips="1" connect="1" arrows="1" fold="1" page="1" pageScale="1" pageWidth="827" pageHeight="1169" math="0" shadow="0">
            <root>
                <mxCell id="0"/>
                <mxCell id="1" parent="0"/>
                <mxCell id="10" style="edgeStyle=none;html=1;fontSize=16;entryX=0.5;entryY=0;entryDx=0;entryDy=0;" parent="1" source="25" target="12" edge="1">
                    <mxGeometry relative="1" as="geometry">
                        <mxPoint x="145" y="472.9310344827586" as="targetPoint"/>
                        <mxPoint x="60" y="530" as="sourcePoint"/>
                    </mxGeometry>
                </mxCell>
                <mxCell id="5" value="&lt;h1&gt;&lt;b style=&quot;color: rgb(255 , 255 , 255) ; font-size: 16px ; text-align: center&quot;&gt;Banking Outline&lt;/b&gt;&lt;/h1&gt;&lt;p&gt;&lt;span style=&quot;color: rgb(255 , 255 , 255) ; font-size: 12px ; text-align: center&quot;&gt;Welcome to our banking outline!&lt;/span&gt;&lt;br style=&quot;color: rgb(255 , 255 , 255) ; font-size: 12px ; text-align: center&quot;&gt;&lt;span style=&quot;color: rgb(255 , 255 , 255) ; font-size: 12px ; text-align: center&quot;&gt;Here, we can plan systems.&lt;/span&gt;&lt;br&gt;&lt;/p&gt;" style="text;html=1;strokeColor=none;fillColor=none;spacing=5;spacingTop=-20;whiteSpace=wrap;overflow=hidden;rounded=0;fontSize=16;" parent="1" vertex="1">
                    <mxGeometry x="10" y="10" width="190" height="130" as="geometry"/>
                </mxCell>
                <mxCell id="12" value="User" style="swimlane;fontStyle=0;childLayout=stackLayout;horizontal=1;startSize=30;horizontalStack=0;resizeParent=1;resizeParentMax=0;resizeLast=0;collapsible=1;marginBottom=0;fontSize=16;fillColor=#6a00ff;fontColor=#ffffff;strokeColor=#3700CC;swimlaneFillColor=default;" parent="1" vertex="1">
                    <mxGeometry x="170" y="480" width="140" height="120" as="geometry"/>
                </mxCell>
                <mxCell id="13" value="Id" style="text;strokeColor=none;fillColor=none;align=left;verticalAlign=middle;spacingLeft=4;spacingRight=4;overflow=hidden;points=[[0,0.5],[1,0.5]];portConstraint=eastwest;rotatable=0;fontSize=16;" parent="12" vertex="1">
                    <mxGeometry y="30" width="140" height="30" as="geometry"/>
                </mxCell>
                <mxCell id="14" value="Name" style="text;strokeColor=none;fillColor=none;align=left;verticalAlign=middle;spacingLeft=4;spacingRight=4;overflow=hidden;points=[[0,0.5],[1,0.5]];portConstraint=eastwest;rotatable=0;fontSize=16;" parent="12" vertex="1">
                    <mxGeometry y="60" width="140" height="30" as="geometry"/>
                </mxCell>
                <mxCell id="22" value="Birthday" style="text;strokeColor=none;fillColor=none;align=left;verticalAlign=middle;spacingLeft=4;spacingRight=4;overflow=hidden;points=[[0,0.5],[1,0.5]];portConstraint=eastwest;rotatable=0;fontSize=16;" parent="12" vertex="1">
                    <mxGeometry y="90" width="140" height="30" as="geometry"/>
                </mxCell>
                <mxCell id="16" value="Bank" style="swimlane;fontStyle=0;childLayout=stackLayout;horizontal=1;startSize=30;horizontalStack=0;resizeParent=1;resizeParentMax=0;resizeLast=0;collapsible=1;marginBottom=0;fontSize=16;fillColor=#1ba1e2;fontColor=#ffffff;strokeColor=#006EAF;swimlaneFillColor=default;" parent="1" vertex="1">
                    <mxGeometry x="345" y="180" width="190" height="90" as="geometry"/>
                </mxCell>
                <mxCell id="17" value="User - Accounts RecordsÂ " style="text;strokeColor=none;fillColor=none;align=left;verticalAlign=middle;spacingLeft=4;spacingRight=4;overflow=hidden;points=[[0,0.5],[1,0.5]];portConstraint=eastwest;rotatable=0;fontSize=16;fontColor=#7F00FF;" parent="16" vertex="1">
                    <mxGeometry y="30" width="190" height="30" as="geometry"/>
                </mxCell>
                <mxCell id="32" value="Account Management" style="text;strokeColor=none;fillColor=none;align=left;verticalAlign=middle;spacingLeft=4;spacingRight=4;overflow=hidden;points=[[0,0.5],[1,0.5]];portConstraint=eastwest;rotatable=0;fontSize=16;" parent="16" vertex="1">
                    <mxGeometry y="60" width="190" height="30" as="geometry"/>
                </mxCell>
                <mxCell id="23" value="" style="endArrow=classic;startArrow=classic;html=1;fontSize=16;strokeColor=default;dashed=1;" parent="1" source="25" target="28" edge="1">
                    <mxGeometry width="50" height="50" relative="1" as="geometry">
                        <mxPoint x="155" y="450" as="sourcePoint"/>
                        <mxPoint x="295" y="450" as="targetPoint"/>
                    </mxGeometry>
                </mxCell>
                <mxCell id="26" value="" style="group;" parent="1" vertex="1" connectable="0">
                    <mxGeometry x="215" y="320" width="50" height="80" as="geometry"/>
                </mxCell>
                <mxCell id="24" value="" style="shape=actor;whiteSpace=wrap;html=1;fontSize=16;align=center;fillColor=#6a00ff;fontColor=#ffffff;strokeColor=#3700CC;" parent="26" vertex="1">
                    <mxGeometry x="5" width="40" height="60" as="geometry"/>
                </mxCell>
                <mxCell id="25" value="User" style="text;html=1;align=center;verticalAlign=middle;resizable=0;points=[];autosize=1;strokeColor=none;fillColor=none;fontSize=15;" parent="26" vertex="1">
                    <mxGeometry y="60" width="50" height="20" as="geometry"/>
                </mxCell>
                <mxCell id="28" value="Account" style="swimlane;fontStyle=0;childLayout=stackLayout;horizontal=1;startSize=30;horizontalStack=0;resizeParent=1;resizeParentMax=0;resizeLast=0;collapsible=1;marginBottom=0;fontSize=16;fillColor=#008a00;fontColor=#ffffff;strokeColor=#005700;" parent="1" vertex="1">
                    <mxGeometry x="370" y="330" width="140" height="120" as="geometry"/>
                </mxCell>
                <mxCell id="29" value="Id" style="text;strokeColor=none;fillColor=none;align=left;verticalAlign=middle;spacingLeft=4;spacingRight=4;overflow=hidden;points=[[0,0.5],[1,0.5]];portConstraint=eastwest;rotatable=0;fontSize=16;" parent="28" vertex="1">
                    <mxGeometry y="30" width="140" height="30" as="geometry"/>
                </mxCell>
                <mxCell id="30" value="Balance" style="text;strokeColor=none;fillColor=none;align=left;verticalAlign=middle;spacingLeft=4;spacingRight=4;overflow=hidden;points=[[0,0.5],[1,0.5]];portConstraint=eastwest;rotatable=0;fontSize=16;" parent="28" vertex="1">
                    <mxGeometry y="60" width="140" height="30" as="geometry"/>
                </mxCell>
                <mxCell id="42" value="Pin" style="text;strokeColor=none;fillColor=none;align=left;verticalAlign=middle;spacingLeft=4;spacingRight=4;overflow=hidden;points=[[0,0.5],[1,0.5]];portConstraint=eastwest;rotatable=0;fontSize=16;" vertex="1" parent="28">
                    <mxGeometry y="90" width="140" height="30" as="geometry"/>
                </mxCell>
                <mxCell id="33" value="" style="endArrow=classic;html=1;fontSize=15;entryX=-0.005;entryY=0.698;entryDx=0;entryDy=0;entryPerimeter=0;exitX=1;exitY=0.5;exitDx=0;exitDy=0;" parent="1" source="17" target="34" edge="1">
                    <mxGeometry width="50" height="50" relative="1" as="geometry">
                        <mxPoint x="545" y="230" as="sourcePoint"/>
                        <mxPoint x="615" y="100" as="targetPoint"/>
                    </mxGeometry>
                </mxCell>
                <mxCell id="34" value="Dictionary linking users to accounts.&lt;br&gt;private Dictionary&amp;lt;&lt;font color=&quot;#7f00ff&quot;&gt;string&lt;/font&gt;, &lt;font color=&quot;#00cc00&quot;&gt;string&lt;/font&gt;&amp;gt; _userAccountsDictionary;&lt;br&gt;Where &amp;lt;string, string&amp;gt; represents &amp;lt;&lt;font color=&quot;#7f00ff&quot;&gt;userId&lt;/font&gt;, &lt;font color=&quot;#00cc00&quot;&gt;AccountId&lt;/font&gt;&amp;gt;" style="text;html=1;align=center;verticalAlign=middle;resizable=0;points=[];autosize=1;strokeColor=none;fillColor=default;fontSize=15;" parent="1" vertex="1">
                    <mxGeometry x="630" y="140" width="400" height="60" as="geometry"/>
                </mxCell>
                <mxCell id="35" style="edgeStyle=none;html=1;fontSize=15;" parent="1" source="32" target="36" edge="1">
                    <mxGeometry relative="1" as="geometry">
                        <mxPoint x="705" y="255" as="targetPoint"/>
                    </mxGeometry>
                </mxCell>
                <mxCell id="36" value="ATM&lt;br&gt;Withdraw(Card)&lt;br&gt;Deposit (Card)" style="html=1;outlineConnect=0;whiteSpace=wrap;shape=mxgraph.archimate3.application;appType=func;archiType=rounded;fontSize=15;" parent="1" vertex="1">
                    <mxGeometry x="630" y="270" width="150" height="75" as="geometry"/>
                </mxCell>
                <mxCell id="37" value="" style="endArrow=classic;startArrow=classic;html=1;fontSize=16;strokeColor=default;dashed=1;" parent="1" source="16" target="28" edge="1">
                    <mxGeometry width="50" height="50" relative="1" as="geometry">
                        <mxPoint x="274.9999999999998" y="400" as="sourcePoint"/>
                        <mxPoint x="375" y="400" as="targetPoint"/>
                    </mxGeometry>
                </mxCell>
                <mxCell id="43" value="Card" style="swimlane;fontStyle=0;childLayout=stackLayout;horizontal=1;startSize=30;horizontalStack=0;resizeParent=1;resizeParentMax=0;resizeLast=0;collapsible=1;marginBottom=0;fontSize=16;fillColor=#d80073;fontColor=#ffffff;strokeColor=#A50040;swimlaneFillColor=default;" vertex="1" parent="1">
                    <mxGeometry x="370" y="500" width="140" height="120" as="geometry"/>
                </mxCell>
                <mxCell id="44" value="Number" style="text;strokeColor=none;fillColor=none;align=left;verticalAlign=middle;spacingLeft=4;spacingRight=4;overflow=hidden;points=[[0,0.5],[1,0.5]];portConstraint=eastwest;rotatable=0;fontSize=16;" vertex="1" parent="43">
                    <mxGeometry y="30" width="140" height="30" as="geometry"/>
                </mxCell>
                <mxCell id="46" value="Security Code" style="text;strokeColor=none;fillColor=none;align=left;verticalAlign=middle;spacingLeft=4;spacingRight=4;overflow=hidden;points=[[0,0.5],[1,0.5]];portConstraint=eastwest;rotatable=0;fontSize=16;" vertex="1" parent="43">
                    <mxGeometry y="60" width="140" height="30" as="geometry"/>
                </mxCell>
                <mxCell id="47" value="PIN" style="text;strokeColor=none;fillColor=none;align=left;verticalAlign=middle;spacingLeft=4;spacingRight=4;overflow=hidden;points=[[0,0.5],[1,0.5]];portConstraint=eastwest;rotatable=0;fontSize=16;" vertex="1" parent="43">
                    <mxGeometry y="90" width="140" height="30" as="geometry"/>
                </mxCell>
                <mxCell id="48" value="" style="endArrow=none;dashed=1;html=1;dashPattern=1 3;strokeWidth=2;fontColor=#FFFFFF;exitX=1;exitY=0.5;exitDx=0;exitDy=0;" edge="1" parent="1" source="14" target="43">
                    <mxGeometry width="50" height="50" relative="1" as="geometry">
                        <mxPoint x="940" y="490" as="sourcePoint"/>
                        <mxPoint x="990" y="440" as="targetPoint"/>
                    </mxGeometry>
                </mxCell>
                <mxCell id="49" value="" style="endArrow=none;dashed=1;html=1;dashPattern=1 3;strokeWidth=2;fontColor=#FFFFFF;" edge="1" parent="1" source="43" target="28">
                    <mxGeometry width="50" height="50" relative="1" as="geometry">
                        <mxPoint x="940" y="490" as="sourcePoint"/>
                        <mxPoint x="990" y="440" as="targetPoint"/>
                    </mxGeometry>
                </mxCell>
                <mxCell id="1uow3FdBhUxPQJjV7HwF-51" value="Go to next page at the bottom." style="text;html=1;align=center;verticalAlign=middle;resizable=0;points=[];autosize=1;strokeColor=none;fillColor=none;fontColor=#FFFFFF;" vertex="1" parent="1">
                    <mxGeometry x="730" y="590" width="180" height="20" as="geometry"/>
                </mxCell>
            </root>
        </mxGraphModel>
    </diagram>
    <diagram id="eHR3e2Lrq45Xd9JC10n5" name="Page-2">
        <mxGraphModel dx="2392" dy="1150" grid="1" gridSize="10" guides="1" tooltips="1" connect="1" arrows="1" fold="1" page="1" pageScale="1" pageWidth="827" pageHeight="1169" math="0" shadow="0">
            <root>
                <mxCell id="T17UDQJ1rNSeBTMI9JV1-0"/>
                <mxCell id="T17UDQJ1rNSeBTMI9JV1-1" parent="T17UDQJ1rNSeBTMI9JV1-0"/>
                <mxCell id="T17UDQJ1rNSeBTMI9JV1-19" value="" style="shape=curlyBracket;whiteSpace=wrap;html=1;rounded=1;fontColor=#FFFFFF;fillColor=default;" vertex="1" parent="T17UDQJ1rNSeBTMI9JV1-1">
                    <mxGeometry x="400" y="520" width="20" height="120" as="geometry"/>
                </mxCell>
                <mxCell id="T17UDQJ1rNSeBTMI9JV1-20" value="My name is deez" style="text;html=1;align=center;verticalAlign=middle;resizable=0;points=[];autosize=1;strokeColor=none;fillColor=none;fontColor=#FFFFFF;" vertex="1" parent="T17UDQJ1rNSeBTMI9JV1-1">
                    <mxGeometry x="435" y="530" width="110" height="20" as="geometry"/>
                </mxCell>
                <mxCell id="T17UDQJ1rNSeBTMI9JV1-21" value="What's your name sir?" style="text;html=1;align=center;verticalAlign=middle;resizable=0;points=[];autosize=1;strokeColor=none;fillColor=none;fontColor=#FFFFFF;" vertex="1" parent="T17UDQJ1rNSeBTMI9JV1-1">
                    <mxGeometry x="270" y="570" width="130" height="20" as="geometry"/>
                </mxCell>
                <mxCell id="T17UDQJ1rNSeBTMI9JV1-22" value="Joe" style="text;html=1;align=center;verticalAlign=middle;resizable=0;points=[];autosize=1;strokeColor=none;fillColor=none;fontColor=#FFFFFF;" vertex="1" parent="T17UDQJ1rNSeBTMI9JV1-1">
                    <mxGeometry x="435" y="570" width="30" height="20" as="geometry"/>
                </mxCell>
                <mxCell id="T17UDQJ1rNSeBTMI9JV1-23" value="Last name Seetime, first name Seg" style="text;html=1;align=center;verticalAlign=middle;resizable=0;points=[];autosize=1;strokeColor=none;fillColor=none;fontColor=#FFFFFF;" vertex="1" parent="T17UDQJ1rNSeBTMI9JV1-1">
                    <mxGeometry x="435" y="610" width="200" height="20" as="geometry"/>
                </mxCell>
            </root>
        </mxGraphModel>
    </diagram>
</mxfile>